<?xml version="1.0" encoding="UTF-8"?>
<svg id="Calque_2" data-name="Calque 2" xmlns="http://www.w3.org/2000/svg" viewBox="0 0 2758.11 1091.34">
  <defs>
    <style>
      .cls-1 {
        fill: #fff;
      }

      .cls-2 {
        fill: #00bfa5;
      }

      .cls-3 {
        fill: #e91e63;
      }

      .cls-4 {
        fill: #714c6c;
      }

      .cls-5 {
        fill: #ffa000;
      }
    </style>
  </defs>
  <g id="Calque_2-2" data-name="Calque 2">
    <rect class="cls-1" width="2758.11" height="1091.34"/>
  </g>
  <g id="Standard_vectorise" data-name="Standard vectorise">
    <g id="Logo_-_copie_2" data-name="Logo - copie 2">
      <g>
        <g>
          <path class="cls-4" d="m472.23,160.41c4.52,4.9,6.8,11.1,6.8,18.59v381.23c0,45.52-8.27,84.42-24.8,116.7-16.54,32.27-39.48,56.76-68.8,73.48-29.34,16.71-62.4,25.07-99.2,25.07-22.4,0-43.34-2.59-62.8-7.78-19.48-5.19-35.6-12.1-48.4-20.75-11.2-7.5-16.8-15.86-16.8-25.07,0-1.16.52-4.04,1.6-8.64,1.6-5.77,4.26-10.09,8-12.97,3.73-2.89,7.73-4.32,12-4.32,3.2,0,6.4.87,9.6,2.59,34.12,20.17,66.66,30.26,97.6,30.26,44.26,0,79.33-14.99,105.2-44.95,25.86-29.97,38.8-70.89,38.8-122.75v-30.26c-13.34,24.21-32.54,43.66-57.6,58.35-25.07,14.7-52.27,22.04-81.6,22.04-46.4,0-81.6-14.98-105.6-44.95-24-29.96-36-70.59-36-121.89V179c0-7.48,2.26-13.68,6.8-18.59,4.52-4.89,10.26-7.35,17.2-7.35s12.66,2.46,17.2,7.35c4.52,4.9,6.8,11.1,6.8,18.59v257.61c0,41.49,8.4,72.91,25.2,94.23,16.8,21.33,43.06,31.99,78.8,31.99,21.86,0,42.8-5.9,62.8-17.72,20-11.8,36-27.37,48-46.68,12-19.3,18-39.9,18-61.81V179c0-7.48,2.26-13.68,6.8-18.59,4.53-4.89,10.26-7.35,17.2-7.35s12.66,2.46,17.2,7.35Z"/>
          <path class="cls-4" d="m286.23,784.48c-23.08,0-44.99-2.72-65.12-8.08-20.34-5.42-37.54-12.82-51.12-21.99-13.77-9.21-20.76-20.17-20.76-32.53,0-1.47.22-3.78,1.83-10.69l.09-.36c2.13-7.67,5.89-13.62,11.18-17.69,5.28-4.1,11.18-6.19,17.49-6.19,4.69,0,9.36,1.24,13.88,3.68l.3.17c32.57,19.25,63.86,29,93.02,29,41.89,0,74.08-13.68,98.39-41.83,24.29-28.15,36.61-67.48,36.61-116.87v-1.15c-12.07,14.51-26.8,26.9-44.05,37.01-26.36,15.45-55.34,23.28-86.15,23.28-49.05,0-86.95-16.26-112.62-48.33-25.2-31.45-37.97-74.36-37.97-127.51V179c0-9.8,3.09-18.11,9.19-24.7,6.2-6.7,14.43-10.24,23.81-10.24s17.59,3.54,23.8,10.23c6.11,6.62,9.2,14.93,9.2,24.71v257.61c0,39.24,7.83,69.07,23.27,88.65,15.14,19.22,38.6,28.56,71.73,28.56,20.14,0,39.73-5.54,58.22-16.47,18.65-11.01,33.76-25.7,44.93-43.68,11.04-17.77,16.64-36.96,16.64-57.06V179c0-9.8,3.09-18.11,9.19-24.7,6.2-6.7,14.43-10.24,23.81-10.24s17.59,3.54,23.8,10.23l.02.02c6.1,6.6,9.19,14.91,9.19,24.69v381.23c0,46.73-8.68,87.37-25.79,120.8-17.27,33.7-41.61,59.67-72.35,77.2-30.59,17.42-65.46,26.25-103.66,26.25Zm-119-62.45c.07,5.93,4.38,11.8,12.8,17.44,11.94,8.07,27.31,14.63,45.71,19.53,18.62,4.96,38.97,7.48,60.48,7.48,35.03,0,66.91-8.04,94.75-23.89,27.65-15.76,49.6-39.24,65.25-69.76,15.8-30.86,23.81-68.75,23.81-112.6V179c0-5.17-1.44-9.25-4.4-12.47-2.83-3.05-6.2-4.46-10.6-4.46s-7.78,1.42-10.6,4.46c-2.96,3.2-4.4,7.28-4.4,12.47v257.61c0,23.51-6.51,45.9-19.36,66.56-12.72,20.47-29.9,37.18-51.07,49.68-21.3,12.59-43.97,18.97-67.37,18.97-38.47,0-67.36-11.92-85.87-35.42-18-22.84-27.13-56.42-27.13-99.8V179c0-5.18-1.44-9.26-4.41-12.48-2.81-3.03-6.18-4.45-10.59-4.45s-7.78,1.42-10.59,4.46c-2.96,3.2-4.41,7.28-4.41,12.47v265.39c0,48.96,11.45,88.08,34.02,116.26,22.4,27.98,54.65,41.58,98.58,41.58,27.57,0,53.49-7,77.05-20.81,23.53-13.79,41.79-32.28,54.27-54.93l16.88-30.64v65.24c0,53.84-13.79,97.12-40.99,128.63-27.55,31.9-65.24,48.07-112.01,48.07-32.37,0-66.69-10.57-102.01-31.41-1.83-.97-3.53-1.44-5.19-1.44-2.28,0-4.34.77-6.48,2.43-2.13,1.64-3.74,4.36-4.8,8.09-1.07,4.62-1.28,6.19-1.32,6.56Z"/>
        </g>
        <g>
          <path class="cls-4" d="m951.83,498.85c-17.6,35.16-41.88,62.67-72.8,82.56-30.94,19.88-65.34,29.82-103.2,29.82s-72.28-9.94-103.2-29.82c-30.94-19.88-55.2-47.4-72.8-82.56-17.6-35.15-26.4-74.34-26.4-117.57s8.8-82.41,26.4-117.57c17.6-35.15,41.86-62.81,72.8-82.99,30.92-20.17,65.33-30.26,103.2-30.26s72.26,10.09,103.2,30.26c30.93,20.18,55.2,47.84,72.8,82.99,17.6,35.16,26.4,74.34,26.4,117.57s-8.8,82.42-26.4,117.57Zm-41.6-210.93c-13.34-27.66-31.88-49.41-55.6-65.27-23.74-15.84-50-23.77-78.8-23.77s-54.94,7.93-78.4,23.77c-23.47,15.86-42,37.6-55.6,65.27-13.6,27.66-20.4,58.78-20.4,93.36s6.8,64.83,20.4,92.5c13.6,27.66,32.12,49.42,55.6,65.27,23.46,15.86,49.6,23.77,78.4,23.77s55.06-7.78,78.8-23.34c23.72-15.56,42.26-37.17,55.6-64.83,13.33-27.66,20-58.78,20-93.36s-6.67-65.7-20-93.36Z"/>
          <path class="cls-4" d="m775.83,620.23c-39.45,0-75.81-10.52-108.07-31.25-32.17-20.67-57.73-49.64-75.98-86.1-18.15-36.24-27.35-77.15-27.35-121.6s9.2-85.34,27.35-121.6c18.24-36.43,43.79-65.53,75.93-86.5,32.27-21.05,68.65-31.72,108.12-31.72s75.83,10.67,108.11,31.72c32.15,20.98,57.7,50.08,75.93,86.5,18.15,36.26,27.35,77.17,27.35,121.6s-9.2,85.35-27.35,121.6c-18.24,36.44-43.81,65.41-75.98,86.1-32.27,20.74-68.63,31.25-108.07,31.25Zm0-460.76c-35.92,0-68.98,9.69-98.28,28.79-29.43,19.2-52.87,45.94-69.67,79.48-16.89,33.73-25.45,71.93-25.45,113.54s8.56,79.82,25.45,113.54c16.78,33.53,40.21,60.11,69.62,79.02,29.31,18.84,62.39,28.4,98.33,28.4s69.02-9.55,98.33-28.4c29.42-18.91,52.84-45.5,69.62-79.01h0c16.89-33.72,25.45-71.92,25.45-113.54s-8.56-79.81-25.45-113.54c-16.79-33.53-40.23-60.27-69.67-79.48-29.31-19.1-62.38-28.79-98.28-28.79Zm0,412.35c-30.51,0-58.58-8.52-83.44-25.32-24.66-16.65-44.39-39.78-58.64-68.75-14.15-28.78-21.32-61.24-21.32-96.47s7.17-68.55,21.32-97.33c14.23-28.95,33.96-52.09,58.64-68.75,24.88-16.8,52.95-25.31,83.44-25.31s58.66,8.51,83.8,25.29c24.99,16.7,44.74,39.86,58.71,68.84h0c13.86,28.78,20.89,61.51,20.89,97.27s-7.03,68.49-20.89,97.27c-13.99,29.03-33.77,52.06-58.77,68.45-25.12,16.47-53.29,24.82-83.74,24.82Zm0-363.94c-26.83,0-51.52,7.48-73.36,22.23-22.04,14.89-39.73,35.68-52.56,61.78-12.92,26.29-19.48,56.36-19.48,89.39s6.55,62.24,19.48,88.53c12.84,26.12,30.53,46.91,52.56,61.78,21.83,14.75,46.51,22.23,73.37,22.23s51.73-7.36,73.87-21.87c22.23-14.58,39.87-35.18,52.43-61.22,12.68-26.32,19.11-56.42,19.11-89.45s-6.43-63.13-19.11-89.46c-12.56-26.05-30.22-46.8-52.49-61.69-22.12-14.77-46.95-22.26-73.8-22.26Z"/>
        </g>
        <g>
          <path class="cls-4" d="m1427.82,498.85c-17.6,35.16-41.88,62.67-72.8,82.56-30.94,19.88-65.34,29.82-103.2,29.82s-72.28-9.94-103.2-29.82c-30.94-19.88-55.2-47.4-72.8-82.56-17.6-35.15-26.4-74.34-26.4-117.57s8.8-82.41,26.4-117.57c17.6-35.15,41.86-62.81,72.8-82.99,30.92-20.17,65.33-30.26,103.2-30.26s72.26,10.09,103.2,30.26c30.93,20.18,55.2,47.84,72.8,82.99,17.6,35.16,26.4,74.34,26.4,117.57s-8.8,82.42-26.4,117.57Zm-41.6-210.93c-13.34-27.66-31.88-49.41-55.6-65.27-23.74-15.84-50-23.77-78.8-23.77s-54.94,7.93-78.4,23.77c-23.47,15.86-42,37.6-55.6,65.27-13.6,27.66-20.4,58.78-20.4,93.36s6.8,64.83,20.4,92.5c13.6,27.66,32.12,49.42,55.6,65.27,23.46,15.86,49.6,23.77,78.4,23.77s55.06-7.78,78.8-23.34c23.72-15.56,42.26-37.17,55.6-64.83,13.33-27.66,20-58.78,20-93.36s-6.67-65.7-20-93.36Z"/>
          <path class="cls-4" d="m1251.82,620.23c-39.45,0-75.81-10.52-108.07-31.25-32.17-20.67-57.73-49.64-75.98-86.1-18.15-36.24-27.35-77.15-27.35-121.6s9.2-85.34,27.35-121.6c18.24-36.43,43.79-65.53,75.93-86.5,32.27-21.05,68.65-31.72,108.12-31.72s75.83,10.67,108.11,31.72c32.15,20.98,57.7,50.08,75.93,86.5,18.15,36.26,27.35,77.17,27.35,121.6s-9.2,85.35-27.35,121.6c-18.24,36.44-43.81,65.41-75.98,86.1-32.27,20.74-68.63,31.25-108.07,31.25Zm0-460.76c-35.92,0-68.98,9.69-98.28,28.79-29.43,19.2-52.87,45.94-69.67,79.48-16.89,33.73-25.45,71.93-25.45,113.54s8.56,79.82,25.45,113.54c16.78,33.53,40.21,60.11,69.62,79.02,29.31,18.84,62.39,28.4,98.33,28.4s69.02-9.55,98.33-28.4c29.42-18.91,52.84-45.5,69.62-79.01h0c16.89-33.72,25.45-71.92,25.45-113.54s-8.56-79.81-25.45-113.54c-16.79-33.53-40.23-60.27-69.67-79.48-29.31-19.1-62.38-28.79-98.28-28.79Zm0,412.35c-30.51,0-58.58-8.52-83.44-25.32-24.66-16.65-44.39-39.78-58.64-68.75-14.15-28.78-21.32-61.24-21.32-96.47s7.17-68.55,21.32-97.33c14.23-28.95,33.96-52.09,58.64-68.75,24.88-16.8,52.95-25.31,83.44-25.31s58.66,8.51,83.8,25.29c24.99,16.7,44.74,39.86,58.71,68.84h0c13.86,28.78,20.89,61.51,20.89,97.27s-7.03,68.49-20.89,97.27c-13.99,29.03-33.77,52.06-58.77,68.45-25.12,16.47-53.29,24.82-83.74,24.82Zm0-363.94c-26.83,0-51.52,7.48-73.36,22.23-22.04,14.89-39.73,35.68-52.56,61.78-12.92,26.29-19.48,56.36-19.48,89.39s6.55,62.24,19.48,88.53c12.84,26.12,30.53,46.91,52.56,61.78,21.83,14.75,46.51,22.23,73.37,22.23s51.73-7.36,73.87-21.87c22.23-14.58,39.87-35.18,52.43-61.22,12.68-26.32,19.11-56.42,19.11-89.45s-6.43-63.13-19.11-89.46c-12.56-26.05-30.22-46.8-52.49-61.69-22.12-14.77-46.95-22.26-73.8-22.26Z"/>
        </g>
        <g>
          <path class="cls-4" d="m1817.41,561.09c4.26,4.62,6.4,10.37,6.4,17.29s-2.14,12.68-6.4,17.29c-4.28,4.62-9.88,6.92-16.8,6.92h-260c-6.94,0-12.54-2.73-16.8-8.21-4.28-5.47-6.4-11.09-6.4-16.86,0-7.48,2.4-14.12,7.2-19.88l236.8-354.43h-200.8c-6.4,0-11.88-2.3-16.4-6.92-4.54-4.61-6.8-10.37-6.8-17.29s2.26-12.67,6.8-17.29c4.53-4.61,10-6.92,16.4-6.92h245.6c6.4,0,11.73,2.59,16,7.78,4.26,5.19,6.4,11.24,6.4,18.15,0,6.35-2.14,12.68-6.4,19.02l-237.6,354.43h216c6.92,0,12.52,2.31,16.8,6.92Z"/>
          <path class="cls-4" d="m1800.61,611.58h-260c-9.7,0-17.96-4.04-23.91-11.69-5.5-7.04-8.29-14.57-8.29-22.38,0-9.45,3.02-17.94,8.96-25.25l227.2-340.06h-183.96c-8.9,0-16.58-3.24-22.83-9.62-6.21-6.31-9.37-14.25-9.37-23.59s3.16-17.26,9.38-23.6c6.18-6.29,14.07-9.61,22.82-9.61h245.6c9.05,0,16.98,3.82,22.95,11.06,5.61,6.83,8.46,14.86,8.46,23.88,0,8.13-2.67,16.22-7.93,24.04l-228.2,340.41h199.13c9.36,0,17.45,3.39,23.4,9.79l.02.02c5.83,6.32,8.79,14.19,8.79,23.39s-2.96,17.1-8.79,23.4c-6.02,6.5-13.9,9.8-23.41,9.8Zm-240-447.79c-3.98,0-7.15,1.34-9.98,4.22-2.88,2.93-4.22,6.42-4.22,10.98s1.34,8.06,4.21,10.97c2.83,2.89,6,4.23,9.99,4.23h217.64l-246.72,369.19c-3.44,4.14-5.12,8.76-5.12,14.13,0,3.75,1.47,7.45,4.49,11.32,2.56,3.29,5.55,4.75,9.71,4.75h260c4.41,0,7.65-1.28,10.2-4.03,2.73-2.95,4-6.5,4-11.18s-1.27-8.21-4-11.17c-2.56-2.75-5.8-4.03-10.2-4.03h-232.87l246.99-368.44c3.28-4.88,4.88-9.46,4.88-14.01,0-4.81-1.42-8.88-4.35-12.44-2.56-3.11-5.35-4.49-9.05-4.49h-245.6Z"/>
        </g>
      </g>
    </g>
    <g id="BaseLine_-_copie_2" data-name="BaseLine - copie 2">
      <g>
        <path class="cls-4" d="m186.13,924.81h-39.46v-68.54h39.46v11.9h-24.96v15.07h23.23v11.9h-23.23v17.66h24.96v12Z"/>
        <path class="cls-4" d="m192.27,904.94v-11.71h25.15v11.71h-25.15Z"/>
        <path class="cls-4" d="m232.59,851.85c2.11,0,3.94.5,5.47,1.49,1.54.99,2.3,2.83,2.3,5.52s-.77,4.45-2.3,5.47c-1.54,1.03-3.36,1.54-5.47,1.54s-4.02-.51-5.52-1.54c-1.5-1.02-2.26-2.85-2.26-5.47s.75-4.53,2.26-5.52c1.5-.99,3.34-1.49,5.52-1.49Zm7.1,20.54v52.42h-14.3v-52.42h14.3Z"/>
        <path class="cls-4" d="m282.03,871.44c5.63,0,10.14,1.52,13.54,4.56,3.39,3.04,5.09,7.92,5.09,14.64v34.18h-14.3v-30.62c0-3.78-.67-6.61-2.02-8.5-1.34-1.89-3.49-2.83-6.43-2.83-4.35,0-7.33,1.49-8.93,4.46-1.6,2.98-2.4,7.25-2.4,12.82v24.67h-14.3v-52.42h10.94l1.92,6.72h.77c1.66-2.69,3.95-4.64,6.86-5.86,2.91-1.21,6-1.82,9.26-1.82Z"/>
        <path class="cls-4" d="m325.42,924.81l-19.97-52.42h14.98l10.08,29.86c.58,1.79,1.02,3.65,1.34,5.57.32,1.92.54,3.65.67,5.18h.38c.19-3.46.9-7.04,2.11-10.75l10.08-29.86h14.98l-19.97,52.42h-14.69Z"/>
        <path class="cls-4" d="m412.78,898.51c0,8.7-2.29,15.42-6.86,20.16-4.58,4.74-10.8,7.1-18.67,7.1-4.86,0-9.2-1.06-13.01-3.17-3.81-2.11-6.8-5.2-8.98-9.26-2.18-4.06-3.26-9.01-3.26-14.83,0-8.7,2.27-15.39,6.82-20.06,4.54-4.67,10.78-7.01,18.72-7.01,4.93,0,9.28,1.06,13.06,3.17,3.78,2.11,6.75,5.18,8.93,9.22,2.18,4.03,3.26,8.93,3.26,14.69Zm-36.19,0c0,5.18.85,9.1,2.54,11.76,1.69,2.66,4.46,3.98,8.3,3.98s6.51-1.33,8.21-3.98c1.7-2.66,2.54-6.58,2.54-11.76s-.85-9.07-2.54-11.66c-1.7-2.59-4.46-3.89-8.3-3.89s-6.51,1.3-8.21,3.89c-1.7,2.59-2.54,6.48-2.54,11.66Z"/>
        <path class="cls-4" d="m429.39,851.85c2.11,0,3.94.5,5.47,1.49,1.54.99,2.3,2.83,2.3,5.52s-.77,4.45-2.3,5.47c-1.54,1.03-3.36,1.54-5.47,1.54s-4.02-.51-5.52-1.54c-1.5-1.02-2.26-2.85-2.26-5.47s.75-4.53,2.26-5.52c1.5-.99,3.34-1.49,5.52-1.49Zm7.1,20.54v52.42h-14.3v-52.42h14.3Z"/>
        <path class="cls-4" d="m470.38,925.77c-7.81,0-13.84-2.14-18.1-6.43-4.26-4.29-6.38-11.1-6.38-20.45,0-6.4,1.09-11.62,3.26-15.65,2.17-4.03,5.2-7.01,9.07-8.93,3.87-1.92,8.33-2.88,13.39-2.88,3.58,0,6.7.35,9.36,1.06,2.66.71,4.98,1.54,6.96,2.5l-4.22,11.04c-2.24-.9-4.34-1.63-6.29-2.21-1.95-.58-3.89-.86-5.81-.86-7.42,0-11.14,5.28-11.14,15.84,0,5.25.97,9.12,2.93,11.62,1.95,2.5,4.69,3.74,8.21,3.74,3.01,0,5.66-.4,7.97-1.2,2.3-.8,4.54-1.9,6.72-3.31v12.19c-2.18,1.41-4.46,2.42-6.86,3.02s-5.42.91-9.07.91Z"/>
        <path class="cls-4" d="m503.21,851.85c2.11,0,3.94.5,5.47,1.49,1.54.99,2.3,2.83,2.3,5.52s-.77,4.45-2.3,5.47c-1.54,1.03-3.36,1.54-5.47,1.54s-4.02-.51-5.52-1.54c-1.5-1.02-2.26-2.85-2.26-5.47s.75-4.53,2.26-5.52c1.5-.99,3.34-1.49,5.52-1.49Zm7.1,20.54v52.42h-14.3v-52.42h14.3Z"/>
        <path class="cls-4" d="m552.65,871.44c5.63,0,10.14,1.52,13.54,4.56,3.39,3.04,5.09,7.92,5.09,14.64v34.18h-14.3v-30.62c0-3.78-.67-6.61-2.02-8.5-1.34-1.89-3.49-2.83-6.43-2.83-4.35,0-7.33,1.49-8.93,4.46-1.6,2.98-2.4,7.25-2.4,12.82v24.67h-14.3v-52.42h10.94l1.92,6.72h.77c1.66-2.69,3.95-4.64,6.86-5.86,2.91-1.21,6-1.82,9.26-1.82Z"/>
        <path class="cls-4" d="m600.55,871.44c6.46,0,11.52,2.56,15.17,7.68h.38l1.15-6.72h12.1v52.51c0,7.49-2.21,13.18-6.62,17.09-4.42,3.9-10.94,5.86-19.58,5.86-3.71,0-7.15-.22-10.32-.67-3.17-.45-6.26-1.25-9.26-2.4v-11.42c6.4,2.69,13.21,4.03,20.45,4.03s11.04-3.97,11.04-11.9v-1.06c0-1.02.03-2.13.1-3.31.06-1.18.16-2.22.29-3.12h-.38c-1.79,2.75-3.94,4.74-6.43,5.95s-5.31,1.82-8.45,1.82c-6.21,0-11.06-2.38-14.54-7.15-3.49-4.77-5.23-11.41-5.23-19.92s1.79-15.26,5.38-20.06c3.58-4.8,8.51-7.2,14.78-7.2Zm4.51,11.62c-6.72,0-10.08,5.28-10.08,15.84s3.42,15.65,10.27,15.65c3.65,0,6.35-1.04,8.11-3.12,1.76-2.08,2.64-5.71,2.64-10.9v-1.73c0-5.63-.86-9.66-2.59-12.1-1.73-2.43-4.51-3.65-8.35-3.65Z"/>
        <path class="cls-4" d="m686.76,855.31c3.71,0,7.01.58,9.89,1.73,2.88,1.15,5.15,2.85,6.82,5.09,1.66,2.24,2.5,4.93,2.5,8.06,0,4.42-1.31,8.13-3.94,11.14-2.62,3.01-5.89,5.63-9.79,7.87l13.34,12.96c1.28-2.17,2.4-4.46,3.36-6.86.96-2.4,1.76-4.82,2.4-7.25h14.88c-.96,3.58-2.37,7.42-4.22,11.52-1.86,4.1-4.22,7.94-7.1,11.52l14.11,13.73h-17.66l-5.38-5.28c-2.82,1.92-5.9,3.44-9.26,4.56-3.36,1.12-7.02,1.68-10.99,1.68-7.81,0-13.91-1.79-18.29-5.38-4.38-3.58-6.58-8.29-6.58-14.11,0-4.86,1.12-8.75,3.36-11.66,2.24-2.91,5.31-5.49,9.22-7.73-2.5-2.88-4.24-5.54-5.23-7.97-.99-2.43-1.49-5.02-1.49-7.78,0-3.26.85-6.08,2.54-8.45,1.69-2.37,4.05-4.19,7.06-5.47,3.01-1.28,6.5-1.92,10.46-1.92Zm-4.99,40.13c-1.79,1.34-3.22,2.77-4.27,4.27s-1.58,3.25-1.58,5.23c0,2.75,1.02,4.91,3.07,6.48,2.05,1.57,4.61,2.35,7.68,2.35,2.05,0,3.97-.25,5.76-.77,1.79-.51,3.42-1.22,4.9-2.11l-15.55-15.46Zm4.9-29.09c-1.6,0-3.12.4-4.56,1.2-1.44.8-2.16,2.32-2.16,4.56,0,1.6.4,3.14,1.2,4.61.8,1.47,1.87,2.98,3.22,4.51,2.69-1.47,4.75-2.94,6.19-4.42,1.44-1.47,2.16-3.17,2.16-5.09s-.64-3.3-1.92-4.13c-1.28-.83-2.66-1.25-4.13-1.25Z"/>
        <path class="cls-4" d="m779.69,856.27c8.83,0,15.28,1.91,19.34,5.71,4.06,3.81,6.1,9.04,6.1,15.7,0,4.03-.83,7.78-2.5,11.23-1.67,3.46-4.43,6.24-8.3,8.35-3.87,2.11-9.14,3.17-15.79,3.17h-6.24v24.38h-14.5v-68.54h21.89Zm-.77,11.9h-6.62v20.35h4.8c4.1,0,7.34-.82,9.74-2.45,2.4-1.63,3.6-4.27,3.6-7.92,0-6.66-3.84-9.98-11.52-9.98Z"/>
        <path class="cls-4" d="m858.79,924.81h-47.9v-10.08l17.18-17.38c3.46-3.58,6.24-6.58,8.35-8.98,2.11-2.4,3.65-4.58,4.61-6.53.96-1.95,1.44-4.05,1.44-6.29,0-2.75-.75-4.8-2.26-6.14-1.5-1.34-3.54-2.02-6.1-2.02s-5.18.61-7.68,1.82c-2.5,1.22-5.12,2.94-7.87,5.18l-7.87-9.31c1.92-1.66,4-3.25,6.24-4.75,2.24-1.5,4.82-2.72,7.73-3.65,2.91-.93,6.42-1.39,10.51-1.39,4.48,0,8.34.82,11.57,2.45,3.23,1.63,5.73,3.84,7.49,6.62,1.76,2.78,2.64,5.94,2.64,9.46,0,3.78-.75,7.23-2.26,10.37-1.5,3.14-3.68,6.24-6.53,9.31-2.85,3.07-6.29,6.46-10.32,10.18l-8.83,8.26v.67h29.86v12.19Z"/>
        <path class="cls-4" d="m890.08,856.27c8.83,0,15.28,1.91,19.34,5.71,4.06,3.81,6.1,9.04,6.1,15.7,0,4.03-.83,7.78-2.5,11.23-1.67,3.46-4.43,6.24-8.3,8.35-3.87,2.11-9.14,3.17-15.79,3.17h-6.24v24.38h-14.5v-68.54h21.89Zm-.77,11.9h-6.62v20.35h4.8c4.1,0,7.34-.82,9.74-2.45,2.4-1.63,3.6-4.27,3.6-7.92,0-6.66-3.84-9.98-11.52-9.98Z"/>
        <path class="cls-4" d="m990.59,924.81l-4.99-16.32h-24.96l-4.99,16.32h-15.65l24.19-68.83h17.76l24.29,68.83h-15.65Zm-8.45-28.51l-4.99-15.94c-.32-1.09-.74-2.46-1.25-4.13-.51-1.66-1.02-3.36-1.54-5.09-.51-1.73-.93-3.23-1.25-4.51-.32,1.28-.75,2.87-1.3,4.75-.54,1.89-1.06,3.68-1.54,5.38-.48,1.7-.85,2.9-1.1,3.6l-4.9,15.94h17.86Z"/>
        <path class="cls-4" d="m1059.43,872.4v52.42h-10.94l-1.92-6.72h-.77c-1.67,2.69-3.95,4.64-6.86,5.86-2.91,1.21-6,1.82-9.26,1.82-5.63,0-10.14-1.52-13.54-4.56-3.39-3.04-5.09-7.92-5.09-14.64v-34.18h14.3v30.62c0,3.78.67,6.61,2.02,8.5,1.34,1.89,3.49,2.83,6.43,2.83,4.35,0,7.33-1.49,8.93-4.46,1.6-2.98,2.4-7.25,2.4-12.82v-24.67h14.3Z"/>
        <path class="cls-4" d="m1094.08,914.35c1.6,0,3.13-.14,4.61-.43,1.47-.29,2.94-.69,4.42-1.2v10.66c-1.54.71-3.44,1.28-5.71,1.73-2.27.45-4.75.67-7.44.67-3.14,0-5.94-.51-8.4-1.54-2.46-1.02-4.42-2.78-5.86-5.28-1.44-2.5-2.16-6.01-2.16-10.56v-25.25h-6.82v-6.05l7.87-4.8,4.13-11.04h9.12v11.14h14.69v10.75h-14.69v25.25c0,1.98.58,3.47,1.73,4.46,1.15.99,2.66,1.49,4.51,1.49Z"/>
        <path class="cls-4" d="m1158.88,898.51c0,8.7-2.29,15.42-6.86,20.16-4.58,4.74-10.8,7.1-18.67,7.1-4.87,0-9.2-1.06-13.01-3.17s-6.8-5.2-8.98-9.26c-2.18-4.06-3.26-9.01-3.26-14.83,0-8.7,2.27-15.39,6.82-20.06,4.54-4.67,10.78-7.01,18.72-7.01,4.93,0,9.28,1.06,13.06,3.17,3.78,2.11,6.75,5.18,8.93,9.22,2.17,4.03,3.26,8.93,3.26,14.69Zm-36.19,0c0,5.18.85,9.1,2.54,11.76,1.7,2.66,4.46,3.98,8.3,3.98s6.51-1.33,8.21-3.98c1.7-2.66,2.54-6.58,2.54-11.76s-.85-9.07-2.54-11.66c-1.7-2.59-4.46-3.89-8.3-3.89s-6.51,1.3-8.21,3.89c-1.7,2.59-2.54,6.48-2.54,11.66Z"/>
        <path class="cls-4" d="m1229.82,871.44c5.95,0,10.45,1.52,13.49,4.56,3.04,3.04,4.56,7.92,4.56,14.64v34.18h-14.3v-30.62c0-7.55-2.62-11.33-7.87-11.33-3.78,0-6.47,1.34-8.06,4.03-1.6,2.69-2.4,6.56-2.4,11.62v26.3h-14.3v-30.62c0-7.55-2.62-11.33-7.87-11.33-3.97,0-6.71,1.49-8.21,4.46-1.5,2.98-2.26,7.25-2.26,12.82v24.67h-14.3v-52.42h10.94l1.92,6.72h.77c1.6-2.69,3.79-4.64,6.58-5.86,2.78-1.21,5.68-1.82,8.69-1.82,3.84,0,7.09.62,9.74,1.87,2.66,1.25,4.72,3.18,6.19,5.81h1.25c1.6-2.69,3.82-4.64,6.67-5.86,2.85-1.21,5.77-1.82,8.78-1.82Z"/>
        <path class="cls-4" d="m1281.66,871.34c7.04,0,12.43,1.52,16.18,4.56,3.74,3.04,5.62,7.7,5.62,13.97v34.94h-9.98l-2.78-7.1h-.38c-2.24,2.82-4.61,4.86-7.1,6.14s-5.92,1.92-10.27,1.92c-4.67,0-8.54-1.34-11.62-4.03-3.07-2.69-4.61-6.88-4.61-12.58s1.95-9.66,5.86-12.29c3.9-2.62,9.76-4.1,17.57-4.42l9.12-.29v-2.3c0-2.75-.72-4.77-2.16-6.05-1.44-1.28-3.44-1.92-6-1.92s-5.06.37-7.49,1.1c-2.43.74-4.86,1.65-7.3,2.74l-4.7-9.7c2.75-1.41,5.86-2.54,9.31-3.41s7.04-1.3,10.75-1.3Zm7.58,29.18l-5.57.19c-4.61.13-7.81.96-9.6,2.5-1.79,1.54-2.69,3.55-2.69,6.05,0,2.18.64,3.73,1.92,4.66,1.28.93,2.94,1.39,4.99,1.39,3.07,0,5.66-.91,7.78-2.74,2.11-1.82,3.17-4.4,3.17-7.73v-4.32Z"/>
        <path class="cls-4" d="m1337.82,914.35c1.6,0,3.13-.14,4.61-.43,1.47-.29,2.94-.69,4.42-1.2v10.66c-1.54.71-3.44,1.28-5.71,1.73-2.27.45-4.75.67-7.44.67-3.14,0-5.94-.51-8.4-1.54-2.46-1.02-4.42-2.78-5.86-5.28-1.44-2.5-2.16-6.01-2.16-10.56v-25.25h-6.82v-6.05l7.87-4.8,4.13-11.04h9.12v11.14h14.69v10.75h-14.69v25.25c0,1.98.58,3.47,1.73,4.46,1.15.99,2.66,1.49,4.51,1.49Z"/>
        <path class="cls-4" d="m1362.21,851.85c2.11,0,3.94.5,5.47,1.49,1.54.99,2.3,2.83,2.3,5.52s-.77,4.45-2.3,5.47c-1.54,1.03-3.36,1.54-5.47,1.54s-4.02-.51-5.52-1.54c-1.5-1.02-2.26-2.85-2.26-5.47s.75-4.53,2.26-5.52c1.5-.99,3.34-1.49,5.52-1.49Zm7.1,20.54v52.42h-14.3v-52.42h14.3Z"/>
        <path class="cls-4" d="m1429.5,898.51c0,8.7-2.29,15.42-6.86,20.16-4.58,4.74-10.8,7.1-18.67,7.1-4.87,0-9.2-1.06-13.01-3.17s-6.8-5.2-8.98-9.26c-2.18-4.06-3.26-9.01-3.26-14.83,0-8.7,2.27-15.39,6.82-20.06,4.54-4.67,10.78-7.01,18.72-7.01,4.93,0,9.28,1.06,13.06,3.17,3.78,2.11,6.75,5.18,8.93,9.22,2.17,4.03,3.26,8.93,3.26,14.69Zm-36.19,0c0,5.18.85,9.1,2.54,11.76,1.7,2.66,4.46,3.98,8.3,3.98s6.51-1.33,8.21-3.98c1.7-2.66,2.54-6.58,2.54-11.76s-.85-9.07-2.54-11.66c-1.7-2.59-4.46-3.89-8.3-3.89s-6.51,1.3-8.21,3.89c-1.7,2.59-2.54,6.48-2.54,11.66Z"/>
        <path class="cls-4" d="m1468.67,871.44c5.63,0,10.14,1.52,13.54,4.56,3.39,3.04,5.09,7.92,5.09,14.64v34.18h-14.3v-30.62c0-3.78-.67-6.61-2.02-8.5-1.34-1.89-3.49-2.83-6.43-2.83-4.35,0-7.33,1.49-8.93,4.46-1.6,2.98-2.4,7.25-2.4,12.82v24.67h-14.3v-52.42h10.94l1.92,6.72h.77c1.66-2.69,3.95-4.64,6.86-5.86,2.91-1.21,6-1.82,9.26-1.82Z"/>
        <path class="cls-4" d="m1497.56,918.1c0-2.94.8-5.01,2.4-6.19,1.6-1.18,3.55-1.78,5.86-1.78s4.16.59,5.76,1.78c1.6,1.19,2.4,3.25,2.4,6.19s-.8,4.85-2.4,6.1c-1.6,1.25-3.52,1.87-5.76,1.87s-4.26-.62-5.86-1.87c-1.6-1.25-2.4-3.28-2.4-6.1Z"/>
        <path class="cls-4" d="m1610.26,924.81h-39.46v-68.54h39.46v11.9h-24.96v15.07h23.23v11.9h-23.23v17.66h24.96v12Z"/>
        <path class="cls-4" d="m1642.52,871.34c7.04,0,12.43,1.52,16.18,4.56,3.74,3.04,5.62,7.7,5.62,13.97v34.94h-9.98l-2.78-7.1h-.38c-2.24,2.82-4.61,4.86-7.1,6.14s-5.92,1.92-10.27,1.92c-4.67,0-8.54-1.34-11.62-4.03-3.07-2.69-4.61-6.88-4.61-12.58s1.95-9.66,5.86-12.29c3.9-2.62,9.76-4.1,17.57-4.42l9.12-.29v-2.3c0-2.75-.72-4.77-2.16-6.05-1.44-1.28-3.44-1.92-6-1.92s-5.06.37-7.49,1.1c-2.43.74-4.86,1.65-7.3,2.74l-4.7-9.7c2.75-1.41,5.86-2.54,9.31-3.41s7.04-1.3,10.75-1.3Zm7.58,29.18l-5.57.19c-4.61.13-7.81.96-9.6,2.5-1.79,1.54-2.69,3.55-2.69,6.05,0,2.18.64,3.73,1.92,4.66,1.28.93,2.94,1.39,4.99,1.39,3.07,0,5.66-.91,7.78-2.74,2.11-1.82,3.17-4.4,3.17-7.73v-4.32Z"/>
        <path class="cls-4" d="m1713.18,909.26c0,5.31-1.87,9.39-5.62,12.24s-9.33,4.27-16.75,4.27c-3.65,0-6.79-.24-9.41-.72-2.62-.48-5.25-1.26-7.87-2.35v-11.81c2.82,1.28,5.86,2.34,9.12,3.17,3.26.83,6.14,1.25,8.64,1.25,2.75,0,4.74-.42,5.95-1.25,1.21-.83,1.82-1.92,1.82-3.26,0-.9-.24-1.7-.72-2.4-.48-.7-1.52-1.5-3.12-2.4-1.6-.9-4.1-2.05-7.49-3.46-3.33-1.41-6.03-2.8-8.11-4.18-2.08-1.38-3.63-3.04-4.66-4.99-1.03-1.95-1.54-4.4-1.54-7.34,0-4.86,1.89-8.51,5.66-10.94,3.78-2.43,8.8-3.65,15.07-3.65,3.26,0,6.37.32,9.31.96,2.94.64,5.98,1.7,9.12,3.17l-4.32,10.27c-2.56-1.09-4.99-2-7.3-2.74-2.3-.74-4.64-1.1-7.01-1.1-4.22,0-6.34,1.15-6.34,3.46,0,.83.27,1.58.82,2.26.54.67,1.6,1.39,3.17,2.16,1.57.77,3.89,1.79,6.96,3.07,3.01,1.22,5.6,2.48,7.78,3.79,2.17,1.31,3.85,2.96,5.04,4.94,1.18,1.98,1.78,4.51,1.78,7.58Z"/>
        <path class="cls-4" d="m1714.42,872.4h15.65l9.89,29.47c.51,1.47.9,2.95,1.15,4.42.25,1.47.45,3.04.58,4.7h.29c.19-1.66.45-3.23.77-4.7.32-1.47.73-2.94,1.25-4.42l9.7-29.47h15.36l-22.18,59.14c-2.05,5.44-4.96,9.52-8.74,12.24-3.78,2.72-8.16,4.08-13.15,4.08-1.67,0-3.07-.08-4.22-.24-1.15-.16-2.18-.34-3.07-.53v-11.33c.64.13,1.47.25,2.5.38,1.02.13,2.08.19,3.17.19,3.01,0,5.38-.91,7.1-2.74,1.73-1.82,3.04-4.02,3.94-6.58l.86-2.59-20.83-52.03Z"/>
        <path class="cls-4" d="m1768.28,918.1c0-2.94.8-5.01,2.4-6.19,1.6-1.18,3.55-1.78,5.86-1.78s4.16.59,5.76,1.78c1.6,1.19,2.4,3.25,2.4,6.19s-.8,4.85-2.4,6.1c-1.6,1.25-3.52,1.87-5.76,1.87s-4.26-.62-5.86-1.87c-1.6-1.25-2.4-3.28-2.4-6.1Z"/>
        <path class="cls-4" d="m1863.41,856.27c8.83,0,15.28,1.91,19.34,5.71,4.06,3.81,6.1,9.04,6.1,15.7,0,4.03-.83,7.78-2.5,11.23-1.67,3.46-4.43,6.24-8.3,8.35-3.87,2.11-9.14,3.17-15.79,3.17h-6.24v24.38h-14.5v-68.54h21.89Zm-.77,11.9h-6.62v20.35h4.8c4.1,0,7.34-.82,9.74-2.45,2.4-1.63,3.6-4.27,3.6-7.92,0-6.66-3.84-9.98-11.52-9.98Z"/>
        <path class="cls-4" d="m1945.87,898.51c0,8.7-2.29,15.42-6.86,20.16-4.58,4.74-10.8,7.1-18.67,7.1-4.87,0-9.2-1.06-13.01-3.17s-6.8-5.2-8.98-9.26c-2.18-4.06-3.26-9.01-3.26-14.83,0-8.7,2.27-15.39,6.82-20.06,4.54-4.67,10.78-7.01,18.72-7.01,4.93,0,9.28,1.06,13.06,3.17,3.78,2.11,6.75,5.18,8.93,9.22,2.17,4.03,3.26,8.93,3.26,14.69Zm-36.19,0c0,5.18.85,9.1,2.54,11.76,1.7,2.66,4.46,3.98,8.3,3.98s6.51-1.33,8.21-3.98c1.7-2.66,2.54-6.58,2.54-11.76s-.85-9.07-2.54-11.66c-1.7-2.59-4.46-3.89-8.3-3.89s-6.51,1.3-8.21,3.89c-1.7,2.59-2.54,6.48-2.54,11.66Z"/>
        <path class="cls-4" d="m1996.47,924.81l-4.03-18.34c-.26-1.09-.62-2.7-1.1-4.85-.48-2.14-1.01-4.45-1.58-6.91-.58-2.46-1.12-4.74-1.63-6.82-.51-2.08-.86-3.6-1.06-4.56h-.38c-.19.96-.53,2.48-1.01,4.56-.48,2.08-1.01,4.35-1.58,6.82-.58,2.46-1.12,4.79-1.63,6.96-.51,2.18-.9,3.84-1.15,4.99l-4.22,18.14h-15.36l-14.88-52.42h14.21l6.05,23.23c.45,1.67.85,3.6,1.2,5.81.35,2.21.67,4.35.96,6.43.29,2.08.53,3.73.72,4.94h.38c.06-.9.19-2.1.38-3.6.19-1.5.43-3.06.72-4.66.29-1.6.54-3.04.77-4.32.22-1.28.4-2.17.53-2.69l6.43-25.15h15.74l6.14,25.15c.19.9.48,2.34.86,4.32.38,1.98.7,4,.96,6.05.25,2.05.42,3.68.48,4.9h.38c.13-1.09.35-2.67.67-4.75.32-2.08.69-4.26,1.1-6.53.42-2.27.85-4.24,1.3-5.9l6.24-23.23h14.02l-15.07,52.42h-15.55Z"/>
        <path class="cls-4" d="m2054.74,871.44c7.23,0,12.96,2.06,17.18,6.19,4.22,4.13,6.34,10,6.34,17.62v6.91h-33.79c.13,4.03,1.33,7.2,3.6,9.5,2.27,2.3,5.42,3.46,9.46,3.46,3.33,0,6.38-.34,9.17-1.01s5.65-1.71,8.59-3.12v11.04c-2.62,1.28-5.34,2.22-8.16,2.83-2.82.61-6.24.91-10.27.91-5.25,0-9.89-.97-13.92-2.93-4.03-1.95-7.2-4.9-9.5-8.83-2.3-3.94-3.46-8.94-3.46-15.02s1.04-11.17,3.12-15.26c2.08-4.09,4.97-7.17,8.69-9.22,3.71-2.05,8.03-3.07,12.96-3.07Zm.1,10.18c-2.82,0-5.12.9-6.91,2.69-1.79,1.79-2.85,4.58-3.17,8.35h20.06c-.06-3.13-.91-5.76-2.54-7.87-1.63-2.11-4.11-3.17-7.44-3.17Z"/>
        <path class="cls-4" d="m2116.75,871.44c.7,0,1.54.03,2.5.1.96.06,1.73.16,2.3.29l-1.06,13.44c-.51-.13-1.18-.24-2.02-.34-.83-.1-1.57-.14-2.21-.14-2.43,0-4.77.43-7.01,1.3-2.24.86-4.05,2.26-5.42,4.18-1.38,1.92-2.06,4.54-2.06,7.87v26.69h-14.3v-52.42h10.85l2.11,8.83h.67c1.54-2.69,3.65-4.99,6.34-6.91,2.69-1.92,5.79-2.88,9.31-2.88Z"/>
        <path class="cls-4" d="m2157.65,883.15h-12.38v41.66h-14.3v-41.66h-7.87v-6.91l7.87-3.84v-3.84c0-4.48.75-7.95,2.26-10.42,1.5-2.46,3.65-4.21,6.43-5.23,2.78-1.02,6.06-1.54,9.84-1.54,2.75,0,5.28.23,7.58.67,2.3.45,4.16.96,5.57,1.54l-3.65,10.46c-1.09-.32-2.29-.62-3.6-.91-1.31-.29-2.77-.43-4.37-.43-1.99,0-3.44.61-4.37,1.82-.93,1.22-1.39,2.75-1.39,4.61v3.26h12.38v10.75Z"/>
        <path class="cls-4" d="m2211.5,872.4v52.42h-10.94l-1.92-6.72h-.77c-1.67,2.69-3.95,4.64-6.86,5.86-2.91,1.21-6,1.82-9.26,1.82-5.63,0-10.14-1.52-13.54-4.56-3.39-3.04-5.09-7.92-5.09-14.64v-34.18h14.3v30.62c0,3.78.67,6.61,2.02,8.5,1.34,1.89,3.49,2.83,6.43,2.83,4.35,0,7.33-1.49,8.93-4.46,1.6-2.98,2.4-7.25,2.4-12.82v-24.67h14.3Z"/>
        <path class="cls-4" d="m2238.38,924.81h-14.3v-72.96h14.3v72.96Z"/>
        <path class="cls-4" d="m2248.94,918.1c0-2.94.8-5.01,2.4-6.19,1.6-1.18,3.55-1.78,5.86-1.78s4.16.59,5.76,1.78c1.6,1.19,2.4,3.25,2.4,6.19s-.8,4.85-2.4,6.1c-1.6,1.25-3.52,1.87-5.76,1.87s-4.26-.62-5.86-1.87c-1.6-1.25-2.4-3.28-2.4-6.1Z"/>
        <path class="cls-4" d="m2362.6,905.81c0,6.08-2.19,10.93-6.58,14.54-4.38,3.62-10.61,5.42-18.67,5.42-7.23,0-13.7-1.38-19.39-4.13v-13.54c3.26,1.41,6.64,2.71,10.13,3.89,3.49,1.19,6.96,1.78,10.42,1.78s6.13-.69,7.63-2.06c1.5-1.38,2.26-3.12,2.26-5.23,0-1.73-.59-3.2-1.78-4.42-1.19-1.21-2.77-2.35-4.75-3.41-1.98-1.06-4.26-2.19-6.82-3.41-1.6-.77-3.33-1.68-5.18-2.74-1.86-1.06-3.63-2.37-5.33-3.94-1.7-1.57-3.09-3.47-4.18-5.71-1.09-2.24-1.63-4.93-1.63-8.06,0-6.14,2.08-10.93,6.24-14.35,4.16-3.42,9.82-5.14,16.99-5.14,3.58,0,6.97.42,10.18,1.25,3.2.83,6.59,2.02,10.18,3.55l-4.7,11.33c-3.14-1.28-5.95-2.27-8.45-2.98s-5.06-1.06-7.68-1.06-4.86.64-6.34,1.92c-1.47,1.28-2.21,2.94-2.21,4.99,0,2.43,1.09,4.35,3.26,5.76,2.17,1.41,5.41,3.14,9.7,5.18,3.52,1.67,6.51,3.39,8.98,5.18,2.46,1.79,4.37,3.9,5.71,6.34,1.34,2.43,2.02,5.44,2.02,9.02Z"/>
        <path class="cls-4" d="m2433.07,871.44c5.95,0,10.45,1.52,13.49,4.56,3.04,3.04,4.56,7.92,4.56,14.64v34.18h-14.3v-30.62c0-7.55-2.62-11.33-7.87-11.33-3.78,0-6.47,1.34-8.06,4.03-1.6,2.69-2.4,6.56-2.4,11.62v26.3h-14.3v-30.62c0-7.55-2.62-11.33-7.87-11.33-3.97,0-6.71,1.49-8.21,4.46-1.5,2.98-2.26,7.25-2.26,12.82v24.67h-14.3v-52.42h10.94l1.92,6.72h.77c1.6-2.69,3.79-4.64,6.58-5.86,2.78-1.21,5.68-1.82,8.69-1.82,3.84,0,7.09.62,9.74,1.87,2.66,1.25,4.72,3.18,6.19,5.81h1.25c1.6-2.69,3.82-4.64,6.67-5.86,2.85-1.21,5.77-1.82,8.78-1.82Z"/>
        <path class="cls-4" d="m2484.91,871.34c7.04,0,12.43,1.52,16.18,4.56,3.74,3.04,5.62,7.7,5.62,13.97v34.94h-9.98l-2.78-7.1h-.38c-2.24,2.82-4.61,4.86-7.1,6.14s-5.92,1.92-10.27,1.92c-4.67,0-8.54-1.34-11.62-4.03-3.07-2.69-4.61-6.88-4.61-12.58s1.95-9.66,5.86-12.29c3.9-2.62,9.76-4.1,17.57-4.42l9.12-.29v-2.3c0-2.75-.72-4.77-2.16-6.05-1.44-1.28-3.44-1.92-6-1.92s-5.06.37-7.49,1.1c-2.43.74-4.86,1.65-7.3,2.74l-4.7-9.7c2.75-1.41,5.86-2.54,9.31-3.41s7.04-1.3,10.75-1.3Zm7.58,29.18l-5.57.19c-4.61.13-7.81.96-9.6,2.5-1.79,1.54-2.69,3.55-2.69,6.05,0,2.18.64,3.73,1.92,4.66,1.28.93,2.94,1.39,4.99,1.39,3.07,0,5.66-.91,7.78-2.74,2.11-1.82,3.17-4.4,3.17-7.73v-4.32Z"/>
        <path class="cls-4" d="m2548.27,871.44c.7,0,1.54.03,2.5.1.96.06,1.73.16,2.3.29l-1.06,13.44c-.51-.13-1.18-.24-2.02-.34-.83-.1-1.57-.14-2.21-.14-2.43,0-4.77.43-7.01,1.3-2.24.86-4.05,2.26-5.42,4.18-1.38,1.92-2.06,4.54-2.06,7.87v26.69h-14.3v-52.42h10.85l2.11,8.83h.67c1.54-2.69,3.65-4.99,6.34-6.91,2.69-1.92,5.79-2.88,9.31-2.88Z"/>
        <path class="cls-4" d="m2582.25,914.35c1.6,0,3.13-.14,4.61-.43,1.47-.29,2.94-.69,4.42-1.2v10.66c-1.54.71-3.44,1.28-5.71,1.73-2.27.45-4.75.67-7.44.67-3.14,0-5.94-.51-8.4-1.54-2.46-1.02-4.42-2.78-5.86-5.28-1.44-2.5-2.16-6.01-2.16-10.56v-25.25h-6.82v-6.05l7.87-4.8,4.13-11.04h9.12v11.14h14.69v10.75h-14.69v25.25c0,1.98.58,3.47,1.73,4.46,1.15.99,2.66,1.49,4.51,1.49Z"/>
        <path class="cls-4" d="m2597.42,918.1c0-2.94.8-5.01,2.4-6.19,1.6-1.18,3.55-1.78,5.86-1.78s4.16.59,5.76,1.78c1.6,1.19,2.4,3.25,2.4,6.19s-.8,4.85-2.4,6.1c-1.6,1.25-3.52,1.87-5.76,1.87s-4.26-.62-5.86-1.87c-1.6-1.25-2.4-3.28-2.4-6.1Z"/>
      </g>
    </g>
    <g id="Graph_-_copie_2" data-name="Graph - copie 2">
      <g>
        <rect class="cls-1" x="2009.45" y="165.24" width="312.16" height="483.39" transform="translate(-37.88 398.17) rotate(-10.41)"/>
        <path class="cls-3" d="m2251.27,175.93l76.54,416.41-248,45.58-76.54-416.41,248-45.58m24.08-34.93l-307.02,56.43,87.38,475.42,307.01-56.43-87.38-475.42h0Z"/>
      </g>
      <g>
        <rect class="cls-1" x="2154.14" y="302.76" width="483.39" height="326.34" transform="translate(1314.22 2653.9) rotate(-74.7)"/>
        <path class="cls-5" d="m2323.24,226.6l256.9,70.28-111.72,408.38-256.9-70.28,111.72-408.38m-21.02-36.85l-127.55,466.25,314.77,86.11,127.55-466.25-314.77-86.11h0Z"/>
      </g>
      <g>
        <rect class="cls-1" x="2102.97" y="300.48" width="326.34" height="483.39"/>
        <path class="cls-2" d="m2399.3,330.48v423.39h-266.34v-423.39h266.34m30-30h-326.34v483.39h326.34v-483.39h0Z"/>
      </g>
      <g>
        <g>
          <path class="cls-1" d="m2334.82,539.62c.1-65.48-62.4-108.04-65.06-109.83l-6.18-4.13-6.2,4.11c-2.66,1.78-65.3,44.14-65.4,109.62-.08,48.8,34.74,66.62,60.15,70.61l-.05,30.55c-.01,6.16,4.98,11.17,11.14,11.18,6.16,0,11.17-4.98,11.18-11.14l.05-30.55c25.42-3.9,60.3-21.62,60.38-70.41Z"/>
          <path class="cls-2" d="m2263.55,447.51c5.4,4.11,15.76,12.66,25.98,24.87,18.15,21.68,27.33,44.3,27.29,67.22-.03,16.66-5.04,29.73-14.91,38.86-10.32,9.55-23.35,12.74-30.2,13.79l-8.41,1.29-8.4-1.32c-6.84-1.07-19.86-4.3-30.15-13.89-9.84-9.16-14.81-22.25-14.78-38.91.04-22.92,9.29-45.51,27.51-67.13,10.26-12.18,20.65-20.7,26.06-24.79m.04-21.84l-6.2,4.11c-2.67,1.78-65.3,44.14-65.4,109.62-.08,48.8,34.74,66.62,60.15,70.61l-.05,30.55c-.01,6.16,4.98,11.17,11.14,11.18h.02c6.16,0,11.15-4.99,11.16-11.14l.05-30.55c25.42-3.9,60.3-21.62,60.38-70.41.1-65.48-62.4-108.04-65.06-109.83l-6.18-4.13h0Z"/>
        </g>
        <path class="cls-2" d="m2263.3,498.42c-6.07-.01-11.01,4.64-11.02,10.39l-.14,86.24c6.5,1.17,11,1.19,11,1.19,0,0,4.49,0,11-1.15l.14-86.24c0-5.75-4.91-10.42-10.99-10.42Z"/>
      </g>
    </g>
  </g>
</svg>